<svg width="20" height="20" viewBox="0 0 20 20" fill="none" xmlns="http://www.w3.org/2000/svg">
<path d="M10.0002 15.4163C12.9917 15.4163 15.4168 12.9912 15.4168 9.99967C15.4168 7.00813 12.9917 4.58301 10.0002 4.58301C7.00862 4.58301 4.5835 7.00813 4.5835 9.99967C4.5835 12.9912 7.00862 15.4163 10.0002 15.4163Z" stroke="#656B82" stroke-width="1.5" stroke-linecap="round" stroke-linejoin="round"/>
<path d="M15.9498 15.9503L15.8415 15.842M15.8415 4.15866L15.9498 4.05033L15.8415 4.15866ZM4.04984 15.9503L4.15817 15.842L4.04984 15.9503ZM9.99984 1.73366V1.66699V1.73366ZM9.99984 18.3337V18.267V18.3337ZM1.73317 10.0003H1.6665H1.73317ZM18.3332 10.0003H18.2665H18.3332ZM4.15817 4.15866L4.04984 4.05033L4.15817 4.15866Z" stroke="#656B82" stroke-width="2" stroke-linecap="round" stroke-linejoin="round"/>
</svg>
