<svg width="28" height="28" viewBox="0 0 28 28" fill="none" xmlns="http://www.w3.org/2000/svg">
<path d="M8.02637 22.0503C7.54803 22.0503 7.15137 21.6536 7.15137 21.1753V18.7603C7.15137 18.2819 7.54803 17.8853 8.02637 17.8853C8.5047 17.8853 8.90137 18.2819 8.90137 18.7603V21.1753C8.90137 21.6653 8.5047 22.0503 8.02637 22.0503Z" fill="white"/>
<path d="M14 22.0502C13.5217 22.0502 13.125 21.6535 13.125 21.1752V16.3335C13.125 15.8552 13.5217 15.4585 14 15.4585C14.4783 15.4585 14.875 15.8552 14.875 16.3335V21.1752C14.875 21.6652 14.4783 22.0502 14 22.0502Z" fill="white"/>
<path d="M19.9736 22.0496C19.4953 22.0496 19.0986 21.653 19.0986 21.1746V13.918C19.0986 13.4396 19.4953 13.043 19.9736 13.043C20.452 13.043 20.8486 13.4396 20.8486 13.918V21.1746C20.8486 21.6646 20.4636 22.0496 19.9736 22.0496Z" fill="white"/>
<path d="M8.02553 15.3767C7.62886 15.3767 7.27886 15.1083 7.17386 14.7117C7.0572 14.245 7.3372 13.7667 7.81553 13.65C12.1089 12.5767 15.8889 10.2317 18.7705 6.88332L19.3072 6.25332C19.6222 5.89165 20.1705 5.84499 20.5439 6.15999C20.9055 6.47499 20.9522 7.02332 20.6372 7.39665L20.1005 8.02665C16.9855 11.6667 12.8789 14.1983 8.23553 15.3533C8.16553 15.3767 8.09553 15.3767 8.02553 15.3767Z" fill="white"/>
<path d="M19.974 11.1069C19.4957 11.1069 19.099 10.7102 19.099 10.2319V7.7002H16.5557C16.0773 7.7002 15.6807 7.30353 15.6807 6.8252C15.6807 6.34686 16.0773 5.9502 16.5557 5.9502H19.974C20.4523 5.9502 20.849 6.34686 20.849 6.8252V10.2435C20.849 10.7219 20.464 11.1069 19.974 11.1069Z" fill="white"/>
<path d="M17.5002 26.5418H10.5002C4.16516 26.5418 1.4585 23.8352 1.4585 17.5002V10.5002C1.4585 4.16516 4.16516 1.4585 10.5002 1.4585H17.5002C23.8352 1.4585 26.5418 4.16516 26.5418 10.5002V17.5002C26.5418 23.8352 23.8352 26.5418 17.5002 26.5418ZM10.5002 3.2085C5.12183 3.2085 3.2085 5.12183 3.2085 10.5002V17.5002C3.2085 22.8785 5.12183 24.7918 10.5002 24.7918H17.5002C22.8785 24.7918 24.7918 22.8785 24.7918 17.5002V10.5002C24.7918 5.12183 22.8785 3.2085 17.5002 3.2085H10.5002Z" fill="white"/>
</svg>
