<svg width="28" height="28" viewBox="0 0 28 28" fill="none" xmlns="http://www.w3.org/2000/svg">
<path d="M21.3379 26.5418H6.66128C2.69462 26.5418 2.48462 24.3602 2.30962 22.5985L1.84295 16.7535C1.73795 15.6218 2.06462 14.4902 2.78795 13.5802C3.65128 12.5302 4.87628 11.9585 6.19462 11.9585H21.8046C23.0996 11.9585 24.3246 12.5302 25.1529 13.5218L25.3513 13.7902C25.9813 14.6535 26.2613 15.7035 26.1563 16.7652L25.6896 22.5868C25.5146 24.3602 25.3046 26.5418 21.3379 26.5418ZM6.19462 13.7085C5.41295 13.7085 4.66628 14.0585 4.17628 14.6652L4.09462 14.7468C3.72128 15.2252 3.52295 15.9018 3.59295 16.6018L4.05962 22.4468C4.22295 24.1502 4.29295 24.7918 6.66128 24.7918H21.3379C23.718 24.7918 23.7763 24.1502 23.9396 22.4352L24.4063 16.5902C24.4763 15.9018 24.2779 15.2135 23.8229 14.6768L23.7063 14.5368C23.1813 13.9885 22.5163 13.7085 21.7929 13.7085H6.19462Z" fill="white"/>
<path d="M23.9168 14.257C23.4385 14.257 23.0418 13.8603 23.0418 13.382V11.2937C23.0418 7.81699 22.4352 7.21032 18.9585 7.21032H15.9835C14.6652 7.21032 14.2102 6.74365 13.7085 6.07865L12.2035 4.08365C11.6902 3.40699 11.5735 3.24365 10.5235 3.24365H9.04183C5.56516 3.24365 4.9585 3.85032 4.9585 7.32699V13.3353C4.9585 13.8137 4.56183 14.2103 4.0835 14.2103C3.60516 14.2103 3.2085 13.8137 3.2085 13.3353V7.32699C3.2085 2.85865 4.5735 1.49365 9.04183 1.49365H10.5352C12.3318 1.49365 12.8918 2.07699 13.6152 3.03365L15.1085 5.01699C15.4235 5.43699 15.4468 5.46032 15.9952 5.46032H18.9702C23.4385 5.46032 24.8035 6.82532 24.8035 11.2937V13.382C24.7918 13.8603 24.3952 14.257 23.9168 14.257Z" fill="white"/>
<path d="M16.9981 20.7085H11.0015C10.5231 20.7085 10.1265 20.3118 10.1265 19.8335C10.1265 19.3552 10.5231 18.9585 11.0015 18.9585H16.9981C17.4765 18.9585 17.8731 19.3552 17.8731 19.8335C17.8731 20.3118 17.4881 20.7085 16.9981 20.7085Z" fill="white"/>
</svg>
