<svg width="50" height="50" viewBox="0 0 50 50" fill="none" xmlns="http://www.w3.org/2000/svg">
<rect width="50" height="50" rx="25" fill="white"/>
<path d="M12.084 23.4414C11.9135 23.0356 12.0078 22.5687 12.3228 22.2581L17.3348 17.3181C17.7652 16.894 18.4626 16.894 18.8929 17.3181C19.3231 17.7421 19.3231 18.4297 18.8929 18.8536L15.7615 21.94H36.8983C37.5067 21.94 38 22.4261 38 23.0259C38 23.6256 37.5067 24.1117 36.8983 24.1117H13.1018C12.6562 24.1117 12.2546 23.8471 12.084 23.4414ZM36.8982 26.5549H13.1017C12.4933 26.5549 12 27.041 12 27.6408C12 28.2406 12.4933 28.7267 13.1017 28.7267H34.2385L31.107 31.8131C30.6769 32.237 30.6768 32.9246 31.107 33.3485C31.3222 33.5606 31.604 33.6667 31.886 33.6667C32.1679 33.6667 32.4499 33.5606 32.6651 33.3485L37.6772 28.4085C37.9922 28.0981 38.0865 27.631 37.916 27.2253C37.7454 26.8196 37.3438 26.5549 36.8982 26.5549Z" fill="url(#paint0_linear)"/>
<defs>
<linearGradient id="paint0_linear" x1="12" y1="25.3333" x2="38" y2="25.3333" gradientUnits="userSpaceOnUse">
<stop stop-color="#124D5F"/>
<stop offset="1" stop-color="#3CA897"/>
</linearGradient>
</defs>
</svg>
