<svg width="30" height="30" viewBox="0 0 30 30" fill="none" xmlns="http://www.w3.org/2000/svg">
<g clip-path="url(#clip0)">
<path d="M29.4085 0.620821C28.6959 -0.0918544 27.4641 -0.161933 25.8456 0.418087C24.7327 0.81711 23.5652 1.48578 23.0067 2.0443L18.5214 6.52965L3.7568 4.21063L0 7.96742L12.2754 12.7756L8.33408 16.7169L2.74002 17.0445L0.0576563 19.7269L6.1285 22.6562L4.42775 24.357L5.67229 25.6015L7.37074 23.903L10.3029 29.971L12.9847 27.2892L13.3123 21.6952L17.3198 17.6877L22.1271 29.9606L25.8838 26.2038L23.5652 11.4421L27.985 7.02236C28.5435 6.46391 29.2122 5.29648 29.6112 4.18344C30.1912 2.56543 30.1212 1.33338 29.4085 0.620821ZM3.14684 7.30977L4.36828 6.08832L16.9816 8.06943L13.6338 11.4172L3.14684 7.30977ZM24.0062 25.5925L22.7848 26.8139L18.6781 16.3295L22.0254 12.9821L24.0062 25.5925ZM27.9544 3.58971C27.6181 4.52791 27.0623 5.45609 26.7404 5.77801L11.5945 20.924L11.2669 26.5181L10.81 26.9749L8.68881 22.5852L10.2189 21.0552L8.97434 19.8106L7.4468 21.338L3.0549 19.2189L3.51123 18.7626L9.10529 18.435L24.2513 3.28889C24.5732 2.96691 25.5014 2.41133 26.4396 2.07494C27.5046 1.69315 28.0697 1.77108 28.164 1.86535C28.2581 1.95957 28.3362 2.52453 27.9544 3.58971Z" fill="#111528"/>
</g>
<defs>
<clipPath id="clip0">
<rect width="30" height="30" fill="white"/>
</clipPath>
</defs>
</svg>
