<svg width="30" height="30" viewBox="0 0 30 30" fill="none" xmlns="http://www.w3.org/2000/svg">
<path d="M25.6055 15.7122H22.6689C22.2692 15.7122 21.8822 15.7668 21.514 15.8673C20.7875 14.4392 19.3044 13.458 17.5954 13.458H12.4046C10.6956 13.458 9.21246 14.4392 8.48602 15.8673C8.11775 15.7668 7.7308 15.7122 7.33113 15.7122H4.39453C1.97139 15.7122 0 17.6836 0 20.1068V24.8012C0 26.2551 1.18283 27.4379 2.63672 27.4379H27.3633C28.8172 27.4379 30 26.2551 30 24.8012V20.1068C30 17.6836 28.0286 15.7122 25.6055 15.7122ZM8.01006 17.8527V25.6801H2.63672C2.15209 25.6801 1.75781 25.2859 1.75781 24.8012V20.1068C1.75781 18.6529 2.94064 17.4701 4.39453 17.4701H7.33113C7.56973 17.4701 7.80076 17.5025 8.02072 17.5622C8.01439 17.6584 8.01006 17.755 8.01006 17.8527ZM20.2321 25.6801H9.76787V17.8526C9.76787 16.3987 10.9507 15.2159 12.4046 15.2159H17.5954C19.0493 15.2159 20.2321 16.3987 20.2321 17.8526V25.6801ZM28.2422 24.8012C28.2422 25.2859 27.8479 25.6801 27.3633 25.6801H21.9899V17.8526C21.9899 17.7549 21.9856 17.6582 21.9793 17.5621C22.1992 17.5025 22.4303 17.47 22.6689 17.47H25.6055C27.0594 17.47 28.2422 18.6529 28.2422 20.1068V24.8012Z" fill="#111528"/>
<path d="M5.8628 7.4126C3.70954 7.4126 1.95776 9.16437 1.95776 11.3176C1.95771 13.4709 3.70954 15.2227 5.8628 15.2227C8.01601 15.2227 9.76784 13.4709 9.76784 11.3176C9.76784 9.16437 8.01606 7.4126 5.8628 7.4126ZM5.86274 13.4649C4.67874 13.4649 3.71552 12.5016 3.71552 11.3176C3.71552 10.1336 4.67874 9.17041 5.86274 9.17041C7.04675 9.17041 8.00997 10.1336 8.00997 11.3176C8.00997 12.5016 7.04675 13.4649 5.86274 13.4649Z" fill="#111528"/>
<path d="M15 2.56201C12.1233 2.56201 9.78296 4.90236 9.78296 7.77908C9.78296 10.6558 12.1233 12.9962 15 12.9962C17.8767 12.9962 20.2171 10.6558 20.2171 7.77908C20.2171 4.90242 17.8767 2.56201 15 2.56201ZM15 11.2383C13.0926 11.2383 11.5408 9.68654 11.5408 7.77908C11.5408 5.87168 13.0926 4.31982 15 4.31982C16.9075 4.31982 18.4593 5.87162 18.4593 7.77908C18.4593 9.68654 16.9075 11.2383 15 11.2383Z" fill="#111528"/>
<path d="M24.1372 7.4126C21.984 7.4126 20.2322 9.16437 20.2322 11.3176C20.2322 13.4709 21.984 15.2227 24.1372 15.2227C26.2905 15.2227 28.0423 13.4709 28.0423 11.3176C28.0423 9.16437 26.2905 7.4126 24.1372 7.4126ZM24.1372 13.4649C22.9533 13.4649 21.99 12.5016 21.99 11.3176C21.99 10.1336 22.9533 9.17041 24.1372 9.17041C25.3212 9.17041 26.2844 10.1336 26.2844 11.3176C26.2844 12.5016 25.3212 13.4649 24.1372 13.4649Z" fill="#111528"/>
</svg>
