<svg width="30" height="30" viewBox="0 0 30 30" fill="none" xmlns="http://www.w3.org/2000/svg">
<path d="M18.5742 0C14.618 0 11.0256 2.02635 8.94604 5.27426C8.93273 5.27414 8.91955 5.27344 8.90625 5.27344C7.68076 5.27344 6.47186 5.69859 5.50213 6.47062C4.7151 7.09729 4.12822 7.91783 3.80631 8.82826C2.88275 8.95248 1.99541 9.36791 1.28713 10.0762L1.2893 10.0784C0.493535 10.8741 0 11.972 0 13.1836C0 15.6067 1.97139 17.5781 4.39453 17.5781H9.03369L14.1797 25.7422V30H22.9688V25.7422L28.1112 17.5837C29.3998 15.5393 30 13.5826 30 11.4258C30 5.12561 24.8744 0 18.5742 0ZM19.4531 1.9766C20.1998 2.34592 20.9219 3.17086 21.517 4.36102C22.4532 6.23344 22.9688 8.74242 22.9688 11.4258C22.9688 15.0785 22.0184 17.5562 20.4525 21.0938H19.4531V1.9766ZM17.6953 1.97215V13.1836V21.0938H16.6959C16.0663 19.672 15.5343 18.4179 15.1232 17.1809C16.639 16.487 17.6953 14.9568 17.6953 13.1836C17.6953 11.1176 16.2619 9.3808 14.3375 8.91346C14.7819 5.47014 16.1287 2.73633 17.6953 1.97215ZM14.6034 2.61562C13.7599 3.92408 13.2032 5.53236 12.8706 7.07344C12.3165 6.44326 11.6161 5.94979 10.8298 5.63988C11.8194 4.31936 13.1241 3.28365 14.6034 2.61562ZM4.39453 15.8203C2.94064 15.8203 1.75781 14.6375 1.75781 13.1836C1.75781 10.8534 4.59732 9.65754 6.25898 11.3191L7.50193 10.0762C6.97857 9.55283 6.34635 9.17812 5.65647 8.9724C6.26156 7.82203 7.52648 7.03125 8.90625 7.03125C10.5725 7.03125 12.021 8.21391 12.3506 9.84334L12.4967 10.566C13.256 10.5472 13.2466 10.5469 13.3008 10.5469C14.7547 10.5469 15.9375 11.7297 15.9375 13.1836C15.9375 14.6375 14.7547 15.8203 13.3008 15.8203H4.39453ZM13.3276 21.0938L11.1116 17.5781H13.3008C13.3348 17.5781 13.3683 17.5763 13.4021 17.5755C13.7735 18.7194 14.2358 19.8532 14.7759 21.0938H13.3276ZM21.2109 28.2422H15.9375V26.3672H21.2109V28.2422ZM21.6049 24.6094H15.5435L14.4355 22.8516H22.7129L21.6049 24.6094ZM26.6242 16.6464L23.8209 21.0938H22.3714C23.8488 17.6885 24.7266 15.0964 24.7266 11.4258C24.7266 8.46961 24.1169 5.05646 22.5415 2.60982C25.8996 4.12693 28.2422 7.50791 28.2422 11.4258C28.2422 13.2609 27.7431 14.871 26.6242 16.6464Z" fill="#111528"/>
</svg>
