<svg width="30" height="30" viewBox="0 0 30 30" fill="none" xmlns="http://www.w3.org/2000/svg">
<path d="M15 10.3125C15.5178 10.3125 15.9375 9.89273 15.9375 9.375V8.4375C15.9375 7.91977 15.5178 7.5 15 7.5C14.4822 7.5 14.0625 7.91977 14.0625 8.4375V9.375C14.0625 9.89273 14.4822 10.3125 15 10.3125Z" fill="#111528"/>
<path d="M11.25 10.3125C11.7678 10.3125 12.1875 9.89273 12.1875 9.375V8.4375C12.1875 7.91977 11.7678 7.5 11.25 7.5C10.7322 7.5 10.3125 7.91977 10.3125 8.4375V9.375C10.3125 9.89273 10.7322 10.3125 11.25 10.3125Z" fill="#111528"/>
<path d="M18.75 10.3125C19.2678 10.3125 19.6875 9.89273 19.6875 9.375V8.4375C19.6875 7.91977 19.2678 7.5 18.75 7.5C18.2322 7.5 17.8125 7.91977 17.8125 8.4375V9.375C17.8125 9.89273 18.2322 10.3125 18.75 10.3125Z" fill="#111528"/>
<path d="M15 15C15.5178 15 15.9375 14.5802 15.9375 14.0625V13.125C15.9375 12.6073 15.5178 12.1875 15 12.1875C14.4822 12.1875 14.0625 12.6073 14.0625 13.125V14.0625C14.0625 14.5802 14.4822 15 15 15Z" fill="#111528"/>
<path d="M11.25 15C11.7678 15 12.1875 14.5802 12.1875 14.0625V13.125C12.1875 12.6073 11.7678 12.1875 11.25 12.1875C10.7322 12.1875 10.3125 12.6073 10.3125 13.125V14.0625C10.3125 14.5802 10.7322 15 11.25 15Z" fill="#111528"/>
<path d="M18.75 15C19.2678 15 19.6875 14.5802 19.6875 14.0625V13.125C19.6875 12.6073 19.2678 12.1875 18.75 12.1875C18.2322 12.1875 17.8125 12.6073 17.8125 13.125V14.0625C17.8125 14.5802 18.2322 15 18.75 15Z" fill="#111528"/>
<path d="M15 19.6875C15.5178 19.6875 15.9375 19.2677 15.9375 18.75V17.8125C15.9375 17.2948 15.5178 16.875 15 16.875C14.4822 16.875 14.0625 17.2948 14.0625 17.8125V18.75C14.0625 19.2677 14.4822 19.6875 15 19.6875Z" fill="#111528"/>
<path d="M11.25 19.6875C11.7678 19.6875 12.1875 19.2677 12.1875 18.75V17.8125C12.1875 17.2948 11.7678 16.875 11.25 16.875C10.7322 16.875 10.3125 17.2948 10.3125 17.8125V18.75C10.3125 19.2677 10.7322 19.6875 11.25 19.6875Z" fill="#111528"/>
<path d="M18.75 19.6875C19.2678 19.6875 19.6875 19.2677 19.6875 18.75V17.8125C19.6875 17.2948 19.2678 16.875 18.75 16.875C18.2322 16.875 17.8125 17.2948 17.8125 17.8125V18.75C17.8125 19.2677 18.2322 19.6875 18.75 19.6875Z" fill="#111528"/>
<path d="M29.0625 10.7812H23.4375V4.6875C23.4375 4.16977 23.0178 3.75 22.5 3.75H21.0938V0.9375C21.0938 0.419766 20.674 0 20.1562 0H9.84375C9.32596 0 8.90625 0.419766 8.90625 0.9375V3.75H7.5C6.98221 3.75 6.5625 4.16977 6.5625 4.6875V10.7812H0.9375C0.419707 10.7812 0 11.201 0 11.7188V29.0625C0 29.5802 0.419707 30 0.9375 30H29.0625C29.5803 30 30 29.5802 30 29.0625V11.7188C30 11.201 29.5803 10.7812 29.0625 10.7812ZM10.7812 1.875H19.2188V3.75H10.7812V1.875ZM1.875 12.6562H6.5625V28.125H1.875V12.6562ZM8.4375 5.625H21.5625V28.125H19.2188V23.4375C19.7365 23.4375 20.1562 23.0177 20.1562 22.5C20.1562 21.9823 19.7365 21.5625 19.2188 21.5625C18.1564 21.5625 11.8461 21.5625 10.7812 21.5625C10.2635 21.5625 9.84375 21.9823 9.84375 22.5C9.84375 23.0177 10.2635 23.4375 10.7812 23.4375V28.125H8.4375C8.4375 26.964 8.4375 6.80168 8.4375 5.625ZM12.6562 28.125V23.4375H17.3438V28.125H12.6562ZM28.125 28.125H23.4375V12.6562H28.125V28.125Z" fill="#111528"/>
<path d="M25.7812 17.3438C26.299 17.3438 26.7188 16.924 26.7188 16.4062V15.4688C26.7188 14.951 26.299 14.5312 25.7812 14.5312C25.2635 14.5312 24.8438 14.951 24.8438 15.4688V16.4062C24.8438 16.924 25.2635 17.3438 25.7812 17.3438Z" fill="#111528"/>
<path d="M25.7812 21.5625C26.299 21.5625 26.7188 21.1427 26.7188 20.625V19.6875C26.7188 19.1698 26.299 18.75 25.7812 18.75C25.2635 18.75 24.8438 19.1698 24.8438 19.6875V20.625C24.8438 21.1427 25.2635 21.5625 25.7812 21.5625Z" fill="#111528"/>
<path d="M25.7812 25.7812C26.299 25.7812 26.7188 25.3615 26.7188 24.8438V23.9062C26.7188 23.3885 26.299 22.9688 25.7812 22.9688C25.2635 22.9688 24.8438 23.3885 24.8438 23.9062V24.8438C24.8438 25.3615 25.2635 25.7812 25.7812 25.7812Z" fill="#111528"/>
<path d="M4.21875 14.5312C3.70096 14.5312 3.28125 14.951 3.28125 15.4688V16.4062C3.28125 16.924 3.70096 17.3438 4.21875 17.3438C4.73654 17.3438 5.15625 16.924 5.15625 16.4062V15.4688C5.15625 14.951 4.73654 14.5312 4.21875 14.5312Z" fill="#111528"/>
<path d="M4.21875 18.75C3.70096 18.75 3.28125 19.1698 3.28125 19.6875V20.625C3.28125 21.1427 3.70096 21.5625 4.21875 21.5625C4.73654 21.5625 5.15625 21.1427 5.15625 20.625V19.6875C5.15625 19.1698 4.73654 18.75 4.21875 18.75Z" fill="#111528"/>
<path d="M4.21875 22.9688C3.70096 22.9688 3.28125 23.3885 3.28125 23.9062V24.8438C3.28125 25.3615 3.70096 25.7812 4.21875 25.7812C4.73654 25.7812 5.15625 25.3615 5.15625 24.8438V23.9062C5.15625 23.3885 4.73654 22.9688 4.21875 22.9688Z" fill="#111528"/>
</svg>
