<svg width="30" height="30" viewBox="0 0 30 30" fill="none" xmlns="http://www.w3.org/2000/svg">
<g clip-path="url(#clip0)">
<path d="M30 3.77086C30 3.32414 29.6845 2.9393 29.2462 2.85164L15.1837 0.0391406C15.0623 0.0142969 14.9377 0.0142969 14.8162 0.0391406L0.75375 2.85164C0.315469 2.9393 0 3.32414 0 3.77086V22.527V26.2334C0 26.6801 0.315469 27.0649 0.75375 27.1526L14.8162 29.9604C14.8767 29.9726 14.9381 29.9787 15 29.9787C15.0619 29.9787 15.1228 29.9726 15.1837 29.9604L29.2462 27.1526C29.6845 27.0649 30 26.6801 30 26.2334V3.77086ZM14.0625 7.35773V9.18867L1.875 6.74648V5.01727L14.0625 7.35773ZM28.125 6.75211L15.9375 9.18961V7.35164L28.125 4.91414V6.75211ZM1.875 8.65945L14.0625 11.1016V24.1896L1.875 21.7521V8.65945ZM15.9375 11.1021L28.125 8.66461V21.7526L15.9375 24.1896V11.1021ZM15 1.91461L24.2822 3.77086L14.9963 5.62805L5.52609 3.8093L15 1.91461ZM1.875 23.6641L14.0625 26.1016V27.8979L1.875 25.4646V23.6641ZM15.9375 27.8984V26.1021L28.125 23.6646V25.4651L15.9375 27.8984Z" fill="#111528"/>
<path d="M11.25 12.2085C10.7325 12.2085 10.3125 12.6285 10.3125 13.146V14.0835C10.3125 14.601 10.7325 15.021 11.25 15.021C11.7675 15.021 12.1875 14.601 12.1875 14.0835V13.146C12.1875 12.628 11.7675 12.2085 11.25 12.2085Z" fill="#111528"/>
<path d="M4.6875 11.271C4.17 11.271 3.75 11.691 3.75 12.2085V13.146C3.75 13.6635 4.17 14.0835 4.6875 14.0835C5.205 14.0835 5.625 13.6635 5.625 13.146V12.2085C5.625 11.6905 5.205 11.271 4.6875 11.271Z" fill="#111528"/>
<path d="M18.75 12.2085C18.2325 12.2085 17.8125 12.6285 17.8125 13.146V14.0835C17.8125 14.601 18.2325 15.021 18.75 15.021C19.2675 15.021 19.6875 14.601 19.6875 14.0835V13.146C19.6875 12.628 19.2675 12.2085 18.75 12.2085Z" fill="#111528"/>
<path d="M25.3125 11.271C24.795 11.271 24.375 11.691 24.375 12.2085V13.146C24.375 13.6635 24.795 14.0835 25.3125 14.0835C25.83 14.0835 26.25 13.6635 26.25 13.146V12.2085C26.25 11.6905 25.83 11.271 25.3125 11.271Z" fill="#111528"/>
</g>
<defs>
<clipPath id="clip0">
<rect width="30" height="30" fill="white"/>
</clipPath>
</defs>
</svg>
