<svg width="24" height="24" viewBox="0 0 24 24" fill="none" xmlns="http://www.w3.org/2000/svg">
<g clip-path="url(#clip0)">
<path d="M18.8208 0H5.18202C3.90191 0 2.86052 1.04143 2.86052 2.3215C2.86052 19.5854 2.84171 18.5431 2.90062 18.7199C2.94013 18.8382 3.0063 18.9411 3.0859 19.0211C3.13417 19.0695 7.83453 23.7754 7.90292 23.8279C8.20868 24.0634 7.73867 23.9888 18.8208 23.9888C20.1009 23.9888 21.1423 22.9474 21.1423 21.6673V2.3215C21.1423 1.04143 20.1009 0 18.8208 0V0ZM7.60025 21.3468L5.50254 19.2491H7.60025V21.3468ZM19.5947 21.6673C19.5947 22.094 19.2475 22.4412 18.8208 22.4412H9.14792V18.4753C9.14792 18.0479 8.80148 17.7014 8.37409 17.7014H4.40819V2.3215C4.40819 1.89483 4.75535 1.54767 5.18202 1.54767H18.8208C19.2475 1.54767 19.5947 1.89483 19.5947 2.3215V21.6673ZM17.1281 15.6218C17.1281 16.0491 16.7816 16.3956 16.3542 16.3956H7.60025C7.17285 16.3956 6.82642 16.0491 6.82642 15.6218C6.82642 15.1944 7.17285 14.8479 7.60025 14.8479H16.3542C16.7816 14.8479 17.1281 15.1944 17.1281 15.6218ZM17.1281 19.5877C17.1281 20.015 16.7816 20.3615 16.3542 20.3615H11.3727C10.9453 20.3615 10.5989 20.015 10.5989 19.5877C10.5989 19.1603 10.9453 18.8138 11.3727 18.8138H16.3542C16.7816 18.8138 17.1281 19.1603 17.1281 19.5877ZM11.9697 8.12897C13.4058 8.12897 14.5742 6.96058 14.5742 5.52444C14.5742 4.08831 13.4059 2.91991 11.9697 2.91991C10.5335 2.91991 9.36517 4.08831 9.36517 5.52444C9.36517 6.96058 10.5336 8.12897 11.9697 8.12897ZM11.9697 4.46758C12.5524 4.46758 13.0266 4.9417 13.0266 5.52444C13.0266 6.10719 12.5524 6.58131 11.9697 6.58131C11.387 6.58131 10.9128 6.10719 10.9128 5.52444C10.9128 4.9417 11.387 4.46758 11.9697 4.46758ZM8.05125 11.9195V10.8585C8.05125 10.1894 8.44605 9.58069 9.05709 9.30781L10.2844 8.75979C10.4902 8.6679 10.3461 8.69257 13.322 8.69257C13.5395 8.69257 13.5321 8.71273 14.8648 9.30776C15.4758 9.58064 15.8706 10.1893 15.8706 10.8584V11.9195C15.8706 12.3468 15.5242 12.6933 15.0968 12.6933C14.6694 12.6933 14.3229 12.3468 14.3229 11.9195V10.8584C14.3229 10.7991 14.2879 10.7452 14.2337 10.721L13.157 10.2402H10.7648L9.68805 10.721C9.63389 10.7452 9.59887 10.7991 9.59887 10.8584V11.9195C9.59887 12.3468 9.25243 12.6933 8.82504 12.6933C8.39764 12.6933 8.05125 12.3468 8.05125 11.9195Z" fill="#B8B9BF"/>
</g>
<defs>
<clipPath id="clip0">
<rect width="24" height="24" fill="white"/>
</clipPath>
</defs>
</svg>
