<svg width="24" height="24" viewBox="0 0 24 24" fill="none" xmlns="http://www.w3.org/2000/svg">
<g clip-path="url(#clip0)">
<path d="M20.2983 0H5.58858C4.30787 0 3.266 1.04192 3.266 2.32258V4.40444C2.22113 4.43027 1.37891 5.28769 1.37891 6.33871V7.01613C1.37891 8.06715 2.22113 8.92452 3.266 8.95041V15.0496C2.22113 15.0755 1.37891 15.9329 1.37891 16.9839V17.6613C1.37891 18.7124 2.22113 19.5697 3.266 19.5956V21.6774C3.266 22.9581 4.30787 24 5.58858 24H20.2983C21.579 24 22.6208 22.9581 22.6208 21.6774V2.32258C22.6208 1.04192 21.579 0 20.2983 0V0ZM2.92729 7.01613V6.33871C2.92729 6.12528 3.10095 5.95161 3.31439 5.95161H4.766C4.97944 5.95161 5.1531 6.12528 5.1531 6.33871V7.01613C5.1531 7.22957 4.97944 7.40323 4.766 7.40323H3.31439C3.10095 7.40323 2.92729 7.22957 2.92729 7.01613ZM2.92729 17.6613V16.9839C2.92729 16.7704 3.10095 16.5968 3.31439 16.5968H4.766C4.97944 16.5968 5.1531 16.7704 5.1531 16.9839V17.6613C5.1531 17.8747 4.97944 18.0484 4.766 18.0484H3.31439C3.10095 18.0484 2.92729 17.8747 2.92729 17.6613ZM21.0725 21.6774C21.0725 22.1043 20.7251 22.4516 20.2983 22.4516H5.58858C5.16171 22.4516 4.81439 22.1043 4.81439 21.6774V19.5956C5.85926 19.5697 6.70149 18.7123 6.70149 17.6613V16.9839C6.70149 15.9329 5.85926 15.0755 4.81439 15.0496V8.95041C5.85926 8.92457 6.70149 8.06715 6.70149 7.01613V6.33871C6.70149 5.28769 5.85926 4.43032 4.81439 4.40444V2.32258C4.81439 1.89571 5.16171 1.54839 5.58858 1.54839H20.2983C20.7251 1.54839 21.0725 1.89571 21.0725 2.32258V21.6774ZM13.706 12.2314C15.5815 12.2314 17.1073 10.7056 17.1073 8.83011C17.1073 6.95463 15.5815 5.42884 13.706 5.42884C11.8305 5.42884 10.3047 6.95468 10.3047 8.83011C10.3047 10.7056 11.8305 12.2314 13.706 12.2314ZM13.706 6.97723C14.7277 6.97723 15.5589 7.80842 15.5589 8.83011C15.5589 9.85181 14.7277 10.683 13.706 10.683C12.6843 10.683 11.8531 9.85181 11.8531 8.83011C11.8531 7.80842 12.6843 6.97723 13.706 6.97723ZM18.9676 15.7905V17.3131C18.9676 17.7406 18.621 18.0873 18.1934 18.0873C17.7658 18.0873 17.4192 17.7406 17.4192 17.3131V15.7905C17.4192 15.5729 17.2909 15.3749 17.0921 15.2862L15.4816 14.5671H11.9053L10.2948 15.2862C10.096 15.3749 9.96762 15.5729 9.96762 15.7905V17.3131C9.96762 17.7406 9.62102 18.0873 9.19342 18.0873C8.76582 18.0873 8.41923 17.7406 8.41923 17.3131V15.7905C8.41923 14.9627 8.90765 14.2098 9.66345 13.8723C11.5757 13.0185 11.52 13.0186 11.7403 13.0186C15.9711 13.0186 15.7518 12.9919 15.9622 13.0859L17.7234 13.8722C18.4792 14.2098 18.9676 14.9627 18.9676 15.7905Z" fill="#B8B9BF"/>
</g>
<defs>
<clipPath id="clip0">
<rect width="24" height="24" fill="white"/>
</clipPath>
</defs>
</svg>
