<svg width="30" height="30" viewBox="0 0 30 30" fill="none" xmlns="http://www.w3.org/2000/svg">
<path fill-rule="evenodd" clip-rule="evenodd" d="M6.97133 11.2299H5.61311C5.58359 11.2299 5.55627 11.2574 5.55627 11.2865V15.0783C5.55627 15.1076 5.58359 15.1347 5.61311 15.1347H6.97133V11.2299ZM22.9295 9.53218H24.2875C25.2541 9.53218 26.0418 10.3199 26.0418 11.2865V15.0781C26.0418 16.0447 25.2541 16.8323 24.2875 16.8323H21.9414C21.2423 17.9432 20.2554 18.9137 19.1945 19.6784C19.1945 21.04 20.1809 22.1517 21.5712 22.1517C25.6319 22.1517 28.928 23.2223 28.928 28.1501C28.928 28.6189 28.5479 28.999 28.0789 28.999C27.6104 28.999 27.2301 28.6189 27.2301 28.1501C27.2301 24.1974 24.6099 23.8493 21.5712 23.8493C20.8974 23.8493 20.2611 23.6843 19.7005 23.3931L15.1666 26.6761C14.877 26.8951 14.4671 26.9104 14.1578 26.6861L9.83902 23.5588C9.37203 23.7461 8.86241 23.8493 8.32933 23.8493C5.29099 23.8493 2.67051 24.1974 2.67051 28.1501C2.67051 28.6189 2.29033 28.999 1.82169 28.999C1.35294 28.999 0.972656 28.6189 0.972656 28.1501C0.972656 23.2223 4.26889 22.1517 8.32933 22.1517C9.57782 22.1517 10.6085 21.1778 10.6995 19.9514C9.48914 19.1567 8.35797 18.0902 7.62923 16.8323H5.61311C4.64653 16.8323 3.85885 16.0447 3.85885 15.0781V11.2865C3.85885 10.3199 4.64642 9.53218 5.61311 9.53218H6.97133V8.32114C6.97133 4.23966 10.268 0.874023 14.3404 0.874023H15.5601C19.6324 0.874023 22.9295 4.2401 22.9295 8.32136V9.53218ZM21.2318 15.1354V9.63276C18.9276 9.9291 16.6112 9.27803 14.8052 7.82992C13.1282 9.17084 10.9514 9.88228 8.66907 9.66481V15.0282C9.03802 16.2067 9.93343 17.2468 10.9653 18.0571C12.3723 19.1622 13.9706 19.8149 14.846 19.8149C15.7335 19.8149 17.5314 18.988 19.0394 17.638C19.3212 17.3862 19.5899 17.1167 19.8377 16.8327H17.2138C16.9559 17.1762 16.545 17.3985 16.082 17.3985C15.3006 17.3985 14.6674 16.7649 14.6674 15.9838C14.6674 15.2022 15.3006 14.5688 16.082 14.5688C16.545 14.5688 16.9559 14.7912 17.2138 15.1348C18.3399 15.1347 20.2164 15.1354 21.2318 15.1354V15.1354ZM24.2875 11.2299H22.9295V15.1347H24.2875C24.3169 15.1347 24.3442 15.1076 24.3442 15.0781V11.2865C24.3442 11.2574 24.3169 11.2299 24.2875 11.2299V11.2299ZM21.218 7.92411C21.0698 5.74098 19.7084 3.87358 17.7992 3.03853C17.4971 4.39851 16.876 5.62002 16.0274 6.63441C17.5066 7.74586 19.3774 8.21549 21.218 7.92411ZM16.1598 2.60394C15.9628 2.58289 15.7628 2.57188 15.5601 2.57188H14.3404C11.3134 2.57188 8.86318 4.97743 8.68009 7.9631C12.1907 8.37137 15.4322 6.02685 16.1598 2.60394ZM11.3199 22.5382L14.6552 24.9533L18.3561 22.2736C17.9916 21.8055 17.7268 21.2565 17.5937 20.6586C16.522 21.207 15.5161 21.5122 14.846 21.5122C14.1838 21.5122 13.2549 21.2668 12.268 20.8181C12.0951 21.4692 11.7645 22.0573 11.3199 22.5382V22.5382Z" fill="#111528"/>
</svg>
