<svg width="30" height="30" viewBox="0 0 30 30" fill="none" xmlns="http://www.w3.org/2000/svg">
<path d="M26.25 11.25V4.6875C26.25 4.17187 25.8281 3.75 25.3125 3.75H18.75C18.2344 3.75 17.8125 4.17187 17.8125 4.6875V11.25C17.8125 11.7656 18.2344 12.1875 18.75 12.1875H25.3125C25.8281 12.1875 26.25 11.7656 26.25 11.25ZM25.3125 1.875C26.8687 1.875 28.125 3.13125 28.125 4.6875V11.25C28.125 12.8062 26.8687 14.0625 25.3125 14.0625H18.75C17.1938 14.0625 15.9375 12.8062 15.9375 11.25V4.6875C15.9375 3.13125 17.1938 1.875 18.75 1.875H25.3125Z" fill="#111528"/>
<path d="M26.25 25.3125V18.75C26.25 18.2344 25.8281 17.8125 25.3125 17.8125H18.75C18.2344 17.8125 17.8125 18.2344 17.8125 18.75V25.3125C17.8125 25.8281 18.2344 26.25 18.75 26.25H25.3125C25.8281 26.25 26.25 25.8281 26.25 25.3125ZM25.3125 15.9375C26.8687 15.9375 28.125 17.1938 28.125 18.75V25.3125C28.125 26.8687 26.8687 28.125 25.3125 28.125H18.75C17.1938 28.125 15.9375 26.8687 15.9375 25.3125V18.75C15.9375 17.1938 17.1938 15.9375 18.75 15.9375H25.3125Z" fill="#111528"/>
<path d="M11.25 12.1875C11.7656 12.1875 12.1875 11.7656 12.1875 11.25V4.6875C12.1875 4.17187 11.7656 3.75 11.25 3.75H4.6875C4.17187 3.75 3.75 4.17187 3.75 4.6875V11.25C3.75 11.7656 4.17187 12.1875 4.6875 12.1875H11.25ZM11.25 1.875C12.8062 1.875 14.0625 3.13125 14.0625 4.6875V11.25C14.0625 12.8062 12.8062 14.0625 11.25 14.0625H4.6875C3.13125 14.0625 1.875 12.8062 1.875 11.25V4.6875C1.875 3.13125 3.13125 1.875 4.6875 1.875H11.25Z" fill="#111528"/>
<path d="M11.25 26.25C11.7656 26.25 12.1875 25.8281 12.1875 25.3125V18.75C12.1875 18.2344 11.7656 17.8125 11.25 17.8125H4.6875C4.17187 17.8125 3.75 18.2344 3.75 18.75V25.3125C3.75 25.8281 4.17187 26.25 4.6875 26.25H11.25ZM11.25 15.9375C12.8062 15.9375 14.0625 17.1938 14.0625 18.75V25.3125C14.0625 26.8687 12.8062 28.125 11.25 28.125H4.6875C3.13125 28.125 1.875 26.8687 1.875 25.3125V18.75C1.875 17.1938 3.13125 15.9375 4.6875 15.9375H11.25Z" fill="#111528"/>
</svg>
