<svg width="30" height="30" viewBox="0 0 30 30" fill="none" xmlns="http://www.w3.org/2000/svg">
<path d="M22.7344 0H3.75C3.26461 0 2.87109 0.393516 2.87109 0.878906V29.1211C2.87109 29.6065 3.26461 30 3.75 30H22.7344C25.1575 30 27.1289 28.0286 27.1289 25.6055V4.39453C27.1289 1.97139 25.1575 0 22.7344 0ZM4.62891 1.75781H6.38672V28.2422H4.62891V1.75781ZM25.3711 25.6055C25.3711 27.0594 24.1883 28.2422 22.7344 28.2422H8.14453V1.75781H22.7344C24.1883 1.75781 25.3711 2.94064 25.3711 4.39453V25.6055Z" fill="#111528"/>
<path d="M16.7578 4.92188C13.1392 4.92188 10.1953 7.8658 10.1953 11.4844C10.1953 15.1029 13.1392 18.0469 16.7578 18.0469C20.3764 18.0469 23.3203 15.1029 23.3203 11.4844C23.3203 7.8658 20.3764 4.92188 16.7578 4.92188ZM21.4805 10.6055H19.3744C19.3158 9.33498 19.131 8.15273 18.8394 7.21008C18.8325 7.18781 18.8254 7.16678 18.8184 7.14492C20.1849 7.79643 21.1962 9.07471 21.4805 10.6055ZM15.9009 12.3633H17.6148C17.5104 14.4316 17.0543 15.7286 16.7579 16.1695C16.4614 15.7286 16.0052 14.4316 15.9009 12.3633ZM15.9009 10.6055C16.0052 8.53711 16.4614 7.2402 16.7579 6.79928C17.0543 7.2402 17.5104 8.53711 17.6148 10.6055H15.9009ZM14.6972 7.14492C14.6902 7.16678 14.6831 7.18781 14.6762 7.21008C14.3846 8.15273 14.1998 9.33498 14.1412 10.6055H12.0352C12.3195 9.07471 13.3308 7.79643 14.6972 7.14492ZM12.0352 12.3633H14.1412C14.1998 13.6338 14.3846 14.816 14.6762 15.7587C14.6831 15.7809 14.6902 15.802 14.6972 15.8238C13.3308 15.1723 12.3195 13.8941 12.0352 12.3633ZM18.8185 15.8238C18.8255 15.802 18.8326 15.7809 18.8395 15.7587C19.1311 14.816 19.3159 13.6338 19.3744 12.3633H21.4806C21.1962 13.8941 20.1849 15.1723 18.8185 15.8238Z" fill="#111528"/>
<path d="M21.9141 19.8047H11.6016C11.1162 19.8047 10.7227 20.1982 10.7227 20.6836C10.7227 21.169 11.1162 21.5625 11.6016 21.5625H21.9141C22.3995 21.5625 22.793 21.169 22.793 20.6836C22.793 20.1982 22.3995 19.8047 21.9141 19.8047Z" fill="#111528"/>
<path d="M20.1949 23.3203H13.3208C12.8354 23.3203 12.4419 23.7138 12.4419 24.1992C12.4419 24.6846 12.8354 25.0781 13.3208 25.0781H20.1949C20.6803 25.0781 21.0738 24.6846 21.0738 24.1992C21.0738 23.7138 20.6803 23.3203 20.1949 23.3203Z" fill="#111528"/>
</svg>
