<svg width="14" height="14" viewBox="0 0 14 14" fill="none" xmlns="http://www.w3.org/2000/svg">
<path d="M8.41749 10.9786C8.30665 10.9786 8.19582 10.9378 8.10832 10.8503C7.93915 10.6811 7.93915 10.4011 8.10832 10.232L11.34 7.00031L8.10832 3.76865C7.93915 3.59948 7.93915 3.31948 8.10832 3.15031C8.27749 2.98115 8.55749 2.98115 8.72665 3.15031L12.2675 6.69115C12.4367 6.86031 12.4367 7.14031 12.2675 7.30948L8.72665 10.8503C8.63915 10.9378 8.52832 10.9786 8.41749 10.9786Z" fill="#B8B9BF"/>
<path d="M11.8592 7.4375H2.04175C1.80258 7.4375 1.60425 7.23917 1.60425 7C1.60425 6.76083 1.80258 6.5625 2.04175 6.5625H11.8592C12.0984 6.5625 12.2967 6.76083 12.2967 7C12.2967 7.23917 12.0984 7.4375 11.8592 7.4375Z" fill="#B8B9BF"/>
</svg>
