<svg width="28" height="28" viewBox="0 0 28 28" fill="none" xmlns="http://www.w3.org/2000/svg">
<path d="M20.5571 11.2236H14.4321C13.9538 11.2236 13.5571 10.827 13.5571 10.3486C13.5571 9.8703 13.9538 9.47363 14.4321 9.47363H20.5571C21.0355 9.47363 21.4321 9.8703 21.4321 10.3486C21.4321 10.827 21.0471 11.2236 20.5571 11.2236Z" fill="white"/>
<path d="M8.30616 12.1104C8.0845 12.1104 7.86283 12.0287 7.68783 11.8537L6.81283 10.9787C6.4745 10.6404 6.4745 10.0804 6.81283 9.74203C7.15117 9.4037 7.71117 9.4037 8.0495 9.74203L8.30616 9.9987L10.3128 7.99203C10.6512 7.6537 11.2112 7.6537 11.5495 7.99203C11.8878 8.33036 11.8878 8.89036 11.5495 9.2287L8.9245 11.8537C8.76117 12.017 8.5395 12.1104 8.30616 12.1104Z" fill="white"/>
<path d="M20.5571 19.3901H14.4321C13.9538 19.3901 13.5571 18.9935 13.5571 18.5151C13.5571 18.0368 13.9538 17.6401 14.4321 17.6401H20.5571C21.0355 17.6401 21.4321 18.0368 21.4321 18.5151C21.4321 18.9935 21.0471 19.3901 20.5571 19.3901Z" fill="white"/>
<path d="M8.30616 20.2769C8.0845 20.2769 7.86283 20.1952 7.68783 20.0202L6.81283 19.1452C6.4745 18.8069 6.4745 18.2469 6.81283 17.9085C7.15117 17.5702 7.71117 17.5702 8.0495 17.9085L8.30616 18.1652L10.3128 16.1585C10.6512 15.8202 11.2112 15.8202 11.5495 16.1585C11.8878 16.4969 11.8878 17.0569 11.5495 17.3952L8.9245 20.0202C8.76117 20.1835 8.5395 20.2769 8.30616 20.2769Z" fill="white"/>
<path d="M17.5002 26.5418H10.5002C4.16516 26.5418 1.4585 23.8352 1.4585 17.5002V10.5002C1.4585 4.16516 4.16516 1.4585 10.5002 1.4585H17.5002C23.8352 1.4585 26.5418 4.16516 26.5418 10.5002V17.5002C26.5418 23.8352 23.8352 26.5418 17.5002 26.5418ZM10.5002 3.2085C5.12183 3.2085 3.2085 5.12183 3.2085 10.5002V17.5002C3.2085 22.8785 5.12183 24.7918 10.5002 24.7918H17.5002C22.8785 24.7918 24.7918 22.8785 24.7918 17.5002V10.5002C24.7918 5.12183 22.8785 3.2085 17.5002 3.2085H10.5002Z" fill="white"/>
</svg>
