<svg width="28" height="28" viewBox="0 0 28 28" fill="none" xmlns="http://www.w3.org/2000/svg">
<path d="M17.5007 26.5417H10.5007C8.96074 26.5417 7.67741 26.3901 6.59241 26.0634C6.19574 25.9467 5.93907 25.5617 5.96241 25.1534C6.25407 21.665 9.78907 18.9233 14.0007 18.9233C18.2124 18.9233 21.7357 21.6534 22.0391 25.1534C22.0741 25.5734 21.8174 25.9467 21.4091 26.0634C20.3241 26.3901 19.0407 26.5417 17.5007 26.5417ZM7.84074 24.57C8.61074 24.7217 9.48574 24.7917 10.5007 24.7917H17.5007C18.5157 24.7917 19.3907 24.7217 20.1607 24.57C19.5424 22.33 16.9874 20.6733 14.0007 20.6733C11.0141 20.6733 8.45907 22.33 7.84074 24.57Z" fill="white"/>
<path d="M17.5002 2.3335H10.5002C4.66683 2.3335 2.3335 4.66683 2.3335 10.5002V17.5002C2.3335 21.9102 3.6635 24.3252 6.83683 25.2235C7.0935 22.1902 10.2085 19.7985 14.0002 19.7985C17.7918 19.7985 20.9068 22.1902 21.1635 25.2235C24.3368 24.3252 25.6668 21.9102 25.6668 17.5002V10.5002C25.6668 4.66683 23.3335 2.3335 17.5002 2.3335ZM14.0002 16.5318C11.6902 16.5318 9.82349 14.6535 9.82349 12.3435C9.82349 10.0335 11.6902 8.16683 14.0002 8.16683C16.3102 8.16683 18.1768 10.0335 18.1768 12.3435C18.1768 14.6535 16.3102 16.5318 14.0002 16.5318Z" stroke="white" stroke-width="1.5" stroke-linecap="round" stroke-linejoin="round"/>
<path d="M14.0004 17.4065C11.2121 17.4065 8.94873 15.1315 8.94873 12.3432C8.94873 9.55486 11.2121 7.2915 14.0004 7.2915C16.7887 7.2915 19.0521 9.55486 19.0521 12.3432C19.0521 15.1315 16.7887 17.4065 14.0004 17.4065ZM14.0004 9.0415C12.1804 9.0415 10.6987 10.5232 10.6987 12.3432C10.6987 14.1749 12.1804 15.6565 14.0004 15.6565C15.8204 15.6565 17.3021 14.1749 17.3021 12.3432C17.3021 10.5232 15.8204 9.0415 14.0004 9.0415Z" fill="white"/>
</svg>
