<svg width="28" height="28" viewBox="0 0 28 28" fill="none" xmlns="http://www.w3.org/2000/svg">
<path d="M14 18.375C11.585 18.375 9.625 16.415 9.625 14C9.625 11.585 11.585 9.625 14 9.625C16.415 9.625 18.375 11.585 18.375 14C18.375 16.415 16.415 18.375 14 18.375ZM14 11.375C12.5533 11.375 11.375 12.5533 11.375 14C11.375 15.4467 12.5533 16.625 14 16.625C15.4467 16.625 16.625 15.4467 16.625 14C16.625 12.5533 15.4467 11.375 14 11.375Z" fill="white"/>
<path d="M17.7452 25.8883C17.5002 25.8883 17.2552 25.8533 17.0102 25.795C16.2868 25.5967 15.6802 25.1417 15.2952 24.5L15.1552 24.2667C14.4668 23.0767 13.5218 23.0767 12.8335 24.2667L12.7052 24.4883C12.3202 25.1417 11.7135 25.6083 10.9902 25.795C10.2552 25.9933 9.49683 25.8883 8.85516 25.5033L6.8485 24.3483C6.13683 23.94 5.6235 23.275 5.40183 22.47C5.19183 21.665 5.29683 20.8367 5.70516 20.125C6.0435 19.53 6.13683 18.9933 5.9385 18.655C5.74016 18.3167 5.2385 18.1183 4.55016 18.1183C2.84683 18.1183 1.4585 16.73 1.4585 15.0267V12.9733C1.4585 11.27 2.84683 9.88168 4.55016 9.88168C5.2385 9.88168 5.74016 9.68334 5.9385 9.34501C6.13683 9.00668 6.05516 8.47001 5.70516 7.87501C5.29683 7.16334 5.19183 6.32334 5.40183 5.53001C5.61183 4.72501 6.12516 4.06001 6.8485 3.65168L8.86683 2.49668C10.1852 1.71501 11.9235 2.17001 12.7168 3.51168L12.8568 3.74501C13.5452 4.93501 14.4902 4.93501 15.1785 3.74501L15.3068 3.52334C16.1002 2.17001 17.8385 1.71501 19.1685 2.50834L21.1752 3.66334C21.8868 4.07168 22.4002 4.73668 22.6218 5.54168C22.8318 6.34668 22.7268 7.17501 22.3185 7.88668C21.9802 8.48168 21.8868 9.01834 22.0852 9.35668C22.2835 9.69501 22.7852 9.89334 23.4735 9.89334C25.1768 9.89334 26.5652 11.2817 26.5652 12.985V15.0383C26.5652 16.7417 25.1768 18.13 23.4735 18.13C22.7852 18.13 22.2835 18.3283 22.0852 18.6667C21.8868 19.005 21.9685 19.5417 22.3185 20.1367C22.7268 20.8483 22.8435 21.6883 22.6218 22.4817C22.4118 23.2867 21.8985 23.9517 21.1752 24.36L19.1568 25.515C18.7135 25.76 18.2352 25.8883 17.7452 25.8883ZM14.0002 21.5717C15.0385 21.5717 16.0068 22.225 16.6718 23.38L16.8002 23.6017C16.9402 23.8467 17.1735 24.0217 17.4535 24.0917C17.7335 24.1617 18.0135 24.1267 18.2468 23.9867L20.2652 22.82C20.5685 22.645 20.8018 22.3533 20.8952 22.0033C20.9885 21.6533 20.9418 21.2917 20.7668 20.9883C20.1018 19.845 20.0202 18.6667 20.5335 17.7683C21.0468 16.87 22.1085 16.3567 23.4385 16.3567C24.1852 16.3567 24.7802 15.7617 24.7802 15.015V12.9617C24.7802 12.2267 24.1852 11.62 23.4385 11.62C22.1085 11.62 21.0468 11.1067 20.5335 10.2083C20.0202 9.31001 20.1018 8.13168 20.7668 6.98834C20.9418 6.68501 20.9885 6.32334 20.8952 5.97334C20.8018 5.62334 20.5802 5.34334 20.2768 5.15668L18.2585 4.00168C17.7568 3.69834 17.0918 3.87334 16.7885 4.38668L16.6602 4.60834C15.9952 5.76334 15.0268 6.41668 13.9885 6.41668C12.9502 6.41668 11.9818 5.76334 11.3168 4.60834L11.1885 4.37501C10.8968 3.88501 10.2435 3.71001 9.74183 4.00168L7.7235 5.16834C7.42016 5.34334 7.18683 5.63501 7.0935 5.98501C7.00016 6.33501 7.04683 6.69668 7.22183 7.00001C7.88683 8.14334 7.9685 9.32168 7.45516 10.22C6.94183 11.1183 5.88016 11.6317 4.55016 11.6317C3.8035 11.6317 3.2085 12.2267 3.2085 12.9733V15.0267C3.2085 15.7617 3.8035 16.3683 4.55016 16.3683C5.88016 16.3683 6.94183 16.8817 7.45516 17.78C7.9685 18.6783 7.88683 19.8567 7.22183 21C7.04683 21.3033 7.00016 21.665 7.0935 22.015C7.18683 22.365 7.4085 22.645 7.71183 22.8317L9.73016 23.9867C9.97516 24.1383 10.2668 24.1733 10.5352 24.1033C10.8152 24.0333 11.0485 23.8467 11.2002 23.6017L11.3285 23.38C11.9935 22.2367 12.9618 21.5717 14.0002 21.5717Z" fill="white"/>
</svg>
